<svg width="18" height="16" viewBox="0 0 24 21" fill="none" xmlns="http://www.w3.org/2000/svg">
  <path d="M0 3C0 1.34531 1.34531 0 3 0H21C22.6547 0 24 1.34531 24 3V18C24 19.6547 22.6547 21 21 21H3C1.34531 21 0 19.6547 0 18V3ZM2.25 15.75V17.25C2.25 17.6625 2.5875 18 3 18H4.5C4.9125 18 5.25 17.6625 5.25 17.25V15.75C5.25 15.3375 4.9125 15 4.5 15H3C2.5875 15 2.25 15.3375 2.25 15.75ZM19.5 15C19.0875 15 18.75 15.3375 18.75 15.75V17.25C18.75 17.6625 19.0875 18 19.5 18H21C21.4125 18 21.75 17.6625 21.75 17.25V15.75C21.75 15.3375 21.4125 15 21 15H19.5ZM2.25 9.75V11.25C2.25 11.6625 2.5875 12 3 12H4.5C4.9125 12 5.25 11.6625 5.25 11.25V9.75C5.25 9.3375 4.9125 9 4.5 9H3C2.5875 9 2.25 9.3375 2.25 9.75ZM19.5 9C19.0875 9 18.75 9.3375 18.75 9.75V11.25C18.75 11.6625 19.0875 12 19.5 12H21C21.4125 12 21.75 11.6625 21.75 11.25V9.75C21.75 9.3375 21.4125 9 21 9H19.5ZM2.25 3.75V5.25C2.25 5.6625 2.5875 6 3 6H4.5C4.9125 6 5.25 5.6625 5.25 5.25V3.75C5.25 3.3375 4.9125 3 4.5 3H3C2.5875 3 2.25 3.3375 2.25 3.75ZM19.5 3C19.0875 3 18.75 3.3375 18.75 3.75V5.25C18.75 5.6625 19.0875 6 19.5 6H21C21.4125 6 21.75 5.6625 21.75 5.25V3.75C21.75 3.3375 21.4125 3 21 3H19.5ZM7.5 4.5V7.5C7.5 8.32969 8.17031 9 9 9H15C15.8297 9 16.5 8.32969 16.5 7.5V4.5C16.5 3.67031 15.8297 3 15 3H9C8.17031 3 7.5 3.67031 7.5 4.5ZM9 12C8.17031 12 7.5 12.6703 7.5 13.5V16.5C7.5 17.3297 8.17031 18 9 18H15C15.8297 18 16.5 17.3297 16.5 16.5V13.5C16.5 12.6703 15.8297 12 15 12H9Z" fill="currentColor"/>
</svg>
