<svg
  width="24px"
  height="24px"
  viewBox="0 0 22 22"
  fill="none"
>
  <path
    d="M5.4 17.0408V18.2C5.4 18.4122 5.31571 18.6157 5.16569 18.7657C5.01566 18.9157 4.81217 19 4.6 19C4.38783 19 4.18434 18.9157 4.03431 18.7657C3.88429 18.6157 3.8 18.4122 3.8 18.2V15C3.8 14.7878 3.88429 14.5843 4.03431 14.4343C4.18434 14.2843 4.38783 14.2 4.6 14.2H7.8C8.01217 14.2 8.21566 14.2843 8.36569 14.4343C8.51571 14.5843 8.6 14.7878 8.6 15C8.6 15.2122 8.51571 15.4157 8.36569 15.5657C8.21566 15.7157 8.01217 15.8 7.8 15.8H6.4096C7.6336 16.7888 9.3224 17.4 11 17.4C12.6974 17.4 14.3253 16.7257 15.5255 15.5255C16.7257 14.3253 17.4 12.6974 17.4 11C17.4 10.7878 17.4843 10.5843 17.6343 10.4343C17.7843 10.2843 17.9878 10.2 18.2 10.2C18.4122 10.2 18.6157 10.2843 18.7657 10.4343C18.9157 10.5843 19 10.7878 19 11C19 15.4184 15.4184 19 11 19C8.9608 19 6.9144 18.2672 5.4 17.0408ZM15.5904 6.2C14.3664 5.2112 12.6776 4.6 11 4.6C9.30261 4.6 7.67475 5.27428 6.47452 6.47452C5.27428 7.67475 4.6 9.30261 4.6 11C4.6 11.2122 4.51571 11.4157 4.36569 11.5657C4.21566 11.7157 4.01217 11.8 3.8 11.8C3.58783 11.8 3.38434 11.7157 3.23431 11.5657C3.08429 11.4157 3 11.2122 3 11C3 6.5816 6.5816 3 11 3C13.0392 3 15.0856 3.7328 16.6 4.9592V3.8C16.6 3.58783 16.6843 3.38434 16.8343 3.23431C16.9843 3.08429 17.1878 3 17.4 3C17.6122 3 17.8157 3.08429 17.9657 3.23431C18.1157 3.38434 18.2 3.58783 18.2 3.8V7C18.2 7.21217 18.1157 7.41566 17.9657 7.56569C17.8157 7.71571 17.6122 7.8 17.4 7.8H14.2C13.9878 7.8 13.7843 7.71571 13.6343 7.56569C13.4843 7.41566 13.4 7.21217 13.4 7C13.4 6.78783 13.4843 6.58434 13.6343 6.43431C13.7843 6.28429 13.9878 6.2 14.2 6.2H15.5904Z"
    fill="currentColor"
  />
  <path d="M9 14V8L15 11L9 14Z" fill="currentColor" />
</svg>
