<svg width="18" height="14" viewBox="0 0 27 18" fill="none" xmlns="http://www.w3.org/2000/svg">
  <path d="M0 3C0 1.34531 1.34531 0 3 0H15C16.6547 0 18 1.34531 18 3V15C18 16.6547 16.6547 18 15 18H3C1.34531 18 0 16.6547 0 15V3ZM26.2078 1.67813C26.6953 1.94063 27 2.44688 27 3V15C27 15.5531 26.6953 16.0594 26.2078 16.3219C25.7203 16.5844 25.1297 16.5562 24.6656 16.2469L20.1656 13.2469L19.5 12.8016V12V6V5.19844L20.1656 4.75312L24.6656 1.75313C25.125 1.44844 25.7156 1.41563 26.2078 1.67813Z" fill="currentColor"/>
</svg>
